<svg width="40" height="40" viewBox="0 0 40 40" fill="none" xmlns="http://www.w3.org/2000/svg">
<rect width="40" height="40" rx="20" fill="white"/>
<path d="M28 15H19" stroke="#262626" stroke-width="2" stroke-linecap="round" stroke-linejoin="round"/>
<path d="M22 25H13" stroke="#262626" stroke-width="2" stroke-linecap="round" stroke-linejoin="round"/>
<path d="M22 25C22 25.7956 22.3161 26.5587 22.8787 27.1213C23.4413 27.6839 24.2044 28 25 28C25.7956 28 26.5587 27.6839 27.1213 27.1213C27.6839 26.5587 28 25.7956 28 25C28 24.2044 27.6839 23.4413 27.1213 22.8787C26.5587 22.3161 25.7956 22 25 22C24.2044 22 23.4413 22.3161 22.8787 22.8787C22.3161 23.4413 22 24.2044 22 25Z" stroke="#262626" stroke-width="2" stroke-linecap="round" stroke-linejoin="round"/>
<path d="M12 15C12 15.394 12.0776 15.7841 12.2284 16.1481C12.3791 16.512 12.6001 16.8427 12.8787 17.1213C13.1573 17.3999 13.488 17.6209 13.8519 17.7716C14.2159 17.9224 14.606 18 15 18C15.394 18 15.7841 17.9224 16.1481 17.7716C16.512 17.6209 16.8427 17.3999 17.1213 17.1213C17.3999 16.8427 17.6209 16.512 17.7716 16.1481C17.9224 15.7841 18 15.394 18 15C18 14.606 17.9224 14.2159 17.7716 13.8519C17.6209 13.488 17.3999 13.1573 17.1213 12.8787C16.8427 12.6001 16.512 12.3791 16.1481 12.2284C15.7841 12.0776 15.394 12 15 12C14.606 12 14.2159 12.0776 13.8519 12.2284C13.488 12.3791 13.1573 12.6001 12.8787 12.8787C12.6001 13.1573 12.3791 13.488 12.2284 13.8519C12.0776 14.2159 12 14.606 12 15Z" stroke="#262626" stroke-width="2" stroke-linecap="round" stroke-linejoin="round"/>
</svg>
